<svg xmlns="http://www.w3.org/2000/svg" version="1.1" xmlns:xlink="http://www.w3.org/1999/xlink" xmlns:svgjs="http://svgjs.dev/svgjs" width="349.6" height="128"><g><svg viewBox="0 0 395.52 80.97259842519686" height="80.97259842519686" width="349.6" xmlns="http://www.w3.org/2000/svg" version="1.1" xmlns:xlink="http://www.w3.org/1999/xlink" xmlns:svgjs="http://svgjs.com/svgjs" x="0" y="23.513700787401568" viewbox="0 0 349.6 128"><g><svg viewBox="0 0 395.52 80.97259842519686" height="80.97259842519686" width="395.52"><g><svg viewBox="0 0 395.52 80.97259842519686" height="80.97259842519686" width="395.52"><g id="textblocktransform"><svg viewBox="0 0 395.52 80.97259842519686" height="80.97259842519686" width="395.52" id="textblock"><g><svg viewBox="0 0 395.52 80.97259842519686" height="80.97259842519686" width="395.52"><g transform="matrix(1,0,0,1,0,0)"><svg width="395.52" viewBox="3.0999999046325684 -35.04999923706055 171.42999267578125 35.099998474121094" height="80.97259842519686" data-palette-color="#ffffff"><path d="M18.1 0L3.1 0 3.1-35 18.1-35Q19.55-35 20.6-33.95 21.65-32.9 21.65-31.4L21.65-31.4 21.65-3.6Q21.65-2.1 20.6-1.05 19.55 0 18.1 0L18.1 0ZM7.75-30.35L7.75-4.65 15.25-4.65Q15.95-4.65 16.5-5.18 17.05-5.7 17.05-6.45L17.05-6.45 17.05-28.55Q17.05-29.3 16.5-29.83 15.95-30.35 15.25-30.35L15.25-30.35 7.75-30.35ZM28.5 0.05L23.85 0.05 30.9-34.95 35.45-34.95 42.4 0.05 37.75 0.05 36.4-6.5 29.75-6.5 28.5 0.05ZM33.2-23.55L30.65-11.1 35.6-11.1 33.2-23.55ZM49.65 0L45 0 45-35 60-35Q61.45-35 62.5-33.95 63.55-32.9 63.55-31.4L63.55-31.4 63.55-20.65Q63.55-19.15 62.5-18.1 61.45-17.05 60-17.05L60-17.05 58.95-17.05 63.55 0 58.95 0 54.3-17.05 49.65-17.05 49.65 0ZM49.65-30.35L49.65-21.7 57.15-21.7Q57.85-21.7 58.4-22.23 58.95-22.75 58.95-23.5L58.95-23.5 58.95-28.55Q58.95-29.3 58.4-29.83 57.85-30.35 57.15-30.35L57.15-30.35 49.65-30.35ZM74.29 0L69.64 0 69.64-35 74.29-35 74.29-11.65 83.54-35 88.19-35 81.24-17.5 88.19 0 83.54 0 78.94-11.65 74.29 0ZM109.34 0L94.29 0 94.29-35.05 106.99-35.05Q108.54-35.05 109.59-33.98 110.64-32.9 110.64-31.45L110.64-31.45 110.64-21.5Q111.64-21.15 112.29-20.2 112.94-19.25 112.94-18.15L112.94-18.15 112.94-3.65Q112.94-2.1 111.89-1.05 110.84 0 109.34 0L109.34 0ZM98.99-30.4L98.99-21.7 104.14-21.7Q104.89-21.7 105.44-22.25 105.99-22.8 105.99-23.5L105.99-23.5 105.99-28.6Q105.99-29.35 105.44-29.88 104.89-30.4 104.14-30.4L104.14-30.4 98.99-30.4ZM98.99-17.1L98.99-4.65 106.54-4.65Q107.24-4.65 107.77-5.18 108.29-5.7 108.29-6.5L108.29-6.5 108.29-15.3Q108.29-16 107.77-16.55 107.24-17.1 106.54-17.1L106.54-17.1 98.99-17.1ZM124.54 0L119.89 0 119.89-17 113.04-35 117.69-35 122.24-23.05 126.74-35 131.39-35 124.54-17 124.54 0ZM145.99 0L141.34 0 141.34-30.35 134.39-30.35 134.39-35 152.94-35 152.94-30.35 145.99-30.35 145.99 0ZM174.53 0L155.93 0 155.93-35 174.53-35 174.53-30.4 160.58-30.4 160.58-21.7 169.88-21.7 168.83-17.05 160.58-17.05 160.58-4.65 174.53-4.65 174.53 0Z" opacity="1" transform="matrix(1,0,0,1,0,0)" fill="#ffffff" class="wordmark-text-0" data-fill-palette-color="primary" id="text-0"></path></svg></g></svg></g></svg></g></svg></g><g></g></svg></g><defs></defs></svg></g></svg>